{
  "title": "Australian Survivor - S03E16",
  "uid": 15897946,
  "size": 420424769,
  "categoryP": "video",
  "categoryS": "tv_shows",
  "magnet": "?xt=urn:btih:8bbe13e5c0f33a90a4d8507b5dc49d83ee81f00e&amp;dn=Australian+Survivor+-+S03E16&amp;tr=udp%3A%2F%2Ftracker.leechers-paradise.org%3A6969&amp;tr=udp%3A%2F%2Fzer0day.ch%3A1337&amp;tr=udp%3A%2F%2Fopen.demonii.com%3A1337&amp;tr=udp%3A%2F%2Ftracker.coppersurfer.tk%3A6969&amp;tr=udp%3A%2F%2Fexodus.desync.com%3A6969",
  "seeders": 57,
  "leechers": 17,
  "uploader": "Bullrout",
  "files": 1,
  "time": 1474978440,
  "description": "Australian Survivor - S03E16\r\n\r\nAfter the final tribe merger the castaways jostle for position to control the game. With power held by a select few one contestant sets upon a plan to change the game but is it too little too late?\r\n\r\nComplete name : Australian Survivor - S03E16.mp4\r\nFormat : MPEG-4\r\nFormat profile : Base Media / Version 2\r\nCodec ID : mp42 (mp42/isom/avc1)\r\nFile size : 401 MiB\r\nDuration : 50 min 30 s\r\nOverall bit rate mode : Variable\r\nOverall bit rate : 1 110 kb/s\r\n\r\nVideo\r\nID : 2\r\nFormat : AVC\r\nFormat/Info : Advanced Video Codec\r\nFormat profile :   \r\nFormat settings, CABAC : Yes\r\nFormat settings, ReFrames : 3 frames\r\nCodec ID : avc1\r\nCodec ID/Info : Advanced Video Coding\r\nDuration : 50 min 30 s\r\nBit rate mode : Variable\r\nBit rate : 978 kb/s\r\nMaximum bit rate : 1 000 kb/s\r\nWidth : 720 pixels\r\nHeight : 404 pixels\r\nDisplay aspect ratio : 16:9\r\nOriginal display aspect ratio : 16:9\r\nFrame rate mode : Constant\r\nFrame rate : 25.000 FPS\r\nStandard : PAL\r\nColor space : YUV\r\nChroma subsampling : 4:2:0\r\nBit depth : 8 bits\r\nScan type : Progressive\r\nBits/(Pixel*Frame) : 0.134\r\nStream size : 353 MiB (88%)\r\nWriting library : x264 core 112\r\nColor range : Limited\r\nColor primaries : BT.601 PAL\r\nTransfer characteristics : BT.470 System B, BT.470 System G\r\nMatrix coefficients : BT.601\r\n\r\nAudio\r\nID : 1\r\nFormat : AAC\r\nFormat/Info : Advanced Audio Codec\r\nFormat profile : LC\r\nCodec ID : 40\r\nDuration : 50 min 30 s\r\nBit rate mode : Variable\r\nBit rate : 128 kb/s\r\nMaximum bit rate : 576 kb/s\r\nChannel(s) : 2 channels\r\nChannel positions : Front: L R\r\nSampling rate : 48.0 kHz\r\nFrame rate : 46.875 FPS (1024 spf)\r\nCompression mode : Lossy\r\nStream size : 46.3 MiB (12%)",
  "parsed": {
    "xt": "urn:btih:8bbe13e5c0f33a90a4d8507b5dc49d83ee81f00e",
    "dn": "Australian Survivor - S03E16",
    "tr": [
      "udp://exodus.desync.com:6969",
      "udp://open.demonii.com:1337",
      "udp://tracker.coppersurfer.tk:6969",
      "udp://tracker.leechers-paradise.org:6969",
      "udp://zer0day.ch:1337"
    ],
    "infoHash": "8bbe13e5c0f33a90a4d8507b5dc49d83ee81f00e",
    "infoHashBuffer": {
      "type": "Buffer",
      "data": [
        139,
        190,
        19,
        229,
        192,
        243,
        58,
        144,
        164,
        216,
        80,
        123,
        93,
        196,
        157,
        131,
        238,
        129,
        240,
        14
      ]
    },
    "name": "Australian Survivor - S03E16",
    "announce": [
      "udp://exodus.desync.com:6969",
      "udp://open.demonii.com:1337",
      "udp://tracker.coppersurfer.tk:6969",
      "udp://tracker.leechers-paradise.org:6969",
      "udp://zer0day.ch:1337"
    ],
    "urlList": []
  },
  "previous": 0,
  "peers": 31,
  "last_updated": "2016-12-27T06:27:46.494Z"
}